<svg width="24" height="24" viewBox="0 0 24 24" fill="none" xmlns="http://www.w3.org/2000/svg">
  <path d="M4 6C4 4.89543 4.89543 4 6 4H10C11.1046 4 12 4.89543 12 6V10C12 11.1046 11.1046 12 10 12H6C4.89543 12 4 11.1046 4 10V6Z" stroke="currentColor" stroke-width="1.5"/>
  <path d="M14 14C14 12.8954 14.8954 12 16 12H20C21.1046 12 22 12.8954 22 14V18C22 19.1046 21.1046 20 20 20H16C14.8954 20 14 19.1046 14 18V14Z" stroke="currentColor" stroke-width="1.5"/>
  <path d="M12 8H14.5C15.3284 8 16 8.67157 16 9.5V12" stroke="currentColor" stroke-width="1.5" stroke-linecap="round"/>
  <path d="M8 12V14.5C8 15.3284 8.67157 16 9.5 16H14" stroke="currentColor" stroke-width="1.5" stroke-linecap="round"/>
  <circle cx="8" cy="8" r="1.5" fill="currentColor"/>
  <circle cx="18" cy="16" r="1.5" fill="currentColor"/>
</svg>
